<svg width="46" height="56" viewBox="0 0 46 56" fill="none" xmlns="http://www.w3.org/2000/svg">
<path d="M27.8344 4.10638V14.4327C27.8344 15.8329 27.8344 16.5329 28.1069 17.0677C28.3466 17.5381 28.7288 17.9206 29.1993 18.1603C29.7341 18.4327 30.4341 18.4327 31.8344 18.4327H42.1606M15.3344 38.4326L20.3344 43.4326L31.5844 32.1826M27.8344 3.43256H14.8344C10.634 3.43256 8.53375 3.43256 6.92943 4.25001C5.5182 4.96906 4.37085 6.11641 3.6518 7.52763C2.83435 9.13196 2.83435 11.2322 2.83435 15.4326V41.4326C2.83435 45.6331 2.83435 47.7331 3.6518 49.3376C4.37085 50.7488 5.5182 51.8961 6.92943 52.6151C8.53375 53.4326 10.634 53.4326 14.8344 53.4326H30.8344C35.0349 53.4326 37.1348 53.4326 38.7393 52.6151C40.1506 51.8961 41.2979 50.7488 42.0169 49.3376C42.8344 47.7331 42.8344 45.6331 42.8344 41.4326V18.4326L27.8344 3.43256Z" stroke="black" stroke-width="5" stroke-linecap="round" stroke-linejoin="round"/>
</svg>
