<svg width="60" height="60" viewBox="0 0 60 60" fill="none" xmlns="http://www.w3.org/2000/svg">
<g clip-path="url(#clip0_301_49)">
<path d="M30 0C13.4575 0 0 13.4575 0 30C0 46.5425 13.4575 60 30 60C46.5425 60 60 46.5425 60 30C60 13.4575 46.5425 0 30 0ZM45 32.5H21.035L26.7675 38.2324C27.745 39.2099 27.745 40.7899 26.7675 41.7674C26.28 42.2549 25.64 42.4999 25 42.4999C24.36 42.4999 23.7199 42.2549 23.2324 41.7674L13.2325 31.7674C13.0024 31.5374 12.82 31.2625 12.6925 30.955C12.4399 30.345 12.4399 29.655 12.6925 29.0449C12.82 28.7374 13.0024 28.4624 13.2325 28.2325L23.2324 18.2325C24.2099 17.255 25.7899 17.255 26.7674 18.2325C27.7448 19.21 27.7448 20.79 26.7674 21.7675L21.0349 27.4999H45C46.38 27.4999 47.5 28.6199 47.5 29.9999C47.5 31.3799 46.38 32.5 45 32.5Z" fill="black"/>
</g>
<defs>
<clipPath id="clip0_301_49">
<rect width="60" height="60" fill="white"/>
</clipPath>
</defs>
</svg>
