<svg width="61" height="61" viewBox="0 0 61 61" fill="none" xmlns="http://www.w3.org/2000/svg">
<g clip-path="url(#clip0_242_60)">
<path d="M57.6796 41.8784L57.7696 14.8958L8.7433 14.9258L8.74172 11.8311H60.8344V41.88L57.6796 41.8784ZM56.0896 46.6263L52.9365 46.6232L53.0265 19.6405L4.00014 19.6721L3.99856 16.5774H56.0912L56.0896 46.6263ZM51.4444 49.789H0.834351V21.3205H51.4444V49.789ZM48.2801 24.3853H3.99698V46.6263H48.2786L48.2801 24.3853ZM43.537 44.2547C43.537 44.5342 43.6065 44.7947 43.6965 45.0442H26.1386C30.5059 45.0442 34.0475 40.7968 34.0475 35.5547C34.0475 30.3126 30.5059 26.0653 26.1386 26.0653H43.6949C43.6049 26.3147 43.5354 26.5753 43.5354 26.8563C43.5354 28.1668 44.5965 29.2279 45.907 29.2279C46.188 29.2279 46.4486 29.1584 46.698 29.0684V42.0395C46.4486 41.9511 46.188 41.88 45.907 41.88C44.598 41.8816 43.537 42.9442 43.537 44.2547ZM40.3728 32.2611C39.0622 32.2611 38.0012 33.6758 38.0012 35.4237C38.0012 37.1716 39.0622 38.5863 40.3728 38.5863C41.6833 38.5863 42.7444 37.1716 42.7444 35.4237C42.7444 33.6758 41.6833 32.2611 40.3728 32.2611ZM29.4496 29.8532C29.4733 29.8989 29.4922 29.9605 29.508 30.0363C29.5254 30.1121 29.5365 30.2084 29.5412 30.3237C29.5491 30.4389 29.5522 30.5826 29.5522 30.7547C29.5522 30.9458 29.5475 31.1084 29.538 31.2395C29.527 31.3721 29.5096 31.4811 29.4891 31.5663C29.4638 31.6532 29.4322 31.7163 29.3912 31.7542C29.3486 31.7937 29.2901 31.8142 29.2175 31.8142C29.1449 31.8142 29.0312 31.7684 28.8717 31.6768C28.7122 31.5837 28.518 31.4858 28.2891 31.3784C28.0601 31.2711 27.7917 31.1716 27.4886 31.0832C27.1854 30.9947 26.8538 30.9505 26.4907 30.9505C26.2065 30.9505 25.9601 30.9837 25.7501 31.0532C25.5386 31.1226 25.3617 31.2174 25.2212 31.3389C25.0807 31.4605 24.9733 31.6074 24.9054 31.7763C24.8359 31.9468 24.8012 32.1284 24.8012 32.3179C24.8012 32.6021 24.8786 32.8468 25.0333 33.0553C25.188 33.2637 25.3949 33.4468 25.657 33.6079C25.9175 33.7705 26.2128 33.9205 26.5412 34.0626C26.8696 34.2047 27.2059 34.3547 27.5486 34.5111C27.8912 34.6705 28.2275 34.849 28.5575 35.0511C28.8875 35.2516 29.1812 35.4916 29.437 35.7711C29.6944 36.0521 29.9028 36.3805 30.0607 36.7595C30.2186 37.1384 30.2975 37.5837 30.2975 38.0984C30.2975 38.7695 30.1712 39.36 29.9217 39.8653C29.6722 40.3721 29.3328 40.7968 28.9033 41.1363C28.4738 41.4758 27.9749 41.73 27.4017 41.9005C27.3291 41.9226 27.2501 41.9321 27.1759 41.9495V43.6768H25.6207V42.1532C25.6001 42.1532 25.5828 42.1579 25.5622 42.1579C25.1217 42.1579 24.7112 42.1216 24.3322 42.0505C23.9533 41.9795 23.6186 41.8911 23.3296 41.7916C23.0391 41.6905 22.7975 41.5832 22.6033 41.4726C22.4091 41.3621 22.2686 41.2642 22.1833 41.179C22.098 41.0937 22.0365 40.9705 22.0001 40.8095C21.9638 40.6484 21.9449 40.4147 21.9449 40.1116C21.9449 39.9079 21.9512 39.7358 21.9654 39.5984C21.978 39.4595 22.0001 39.3474 22.0301 39.2605C22.0601 39.1753 22.0996 39.1137 22.1486 39.0774C22.1975 39.0426 22.2559 39.0237 22.3207 39.0237C22.4138 39.0237 22.5433 39.0774 22.7122 39.1879C22.8796 39.2953 23.0959 39.4168 23.3596 39.5479C23.6233 39.679 23.9375 39.7989 24.3038 39.9079C24.6686 40.0168 25.0933 40.0721 25.5733 40.0721C25.8891 40.0721 26.1733 40.0342 26.4228 39.9584C26.6722 39.8826 26.8854 39.7753 27.0607 39.6379C27.2344 39.499 27.367 39.3268 27.4601 39.1232C27.5533 38.9195 27.5991 38.6905 27.5991 38.4395C27.5991 38.149 27.5186 37.8995 27.3622 37.6926C27.2044 37.4842 26.9991 37.3011 26.7449 37.1384C26.4907 36.9758 26.2033 36.8258 25.8812 36.6853C25.5575 36.5432 25.2259 36.3932 24.8833 36.2353C24.5407 36.0774 24.2075 35.8974 23.8854 35.6968C23.5633 35.4963 23.2744 35.2563 23.0217 34.9753C22.7691 34.6958 22.5622 34.3642 22.4044 33.9837C22.2465 33.6016 22.1675 33.1437 22.1675 32.61C22.1675 31.9974 22.2812 31.459 22.5086 30.9963C22.7359 30.5321 23.0422 30.1468 23.4275 29.8405C23.8128 29.5342 24.2675 29.3053 24.7901 29.1537C25.0586 29.0763 25.3365 29.0195 25.6222 28.9816V27.3474H27.1775V28.9816C27.2391 28.9895 27.3007 28.9863 27.3622 28.9958C27.6654 29.0416 27.9496 29.1032 28.2133 29.1821C28.4754 29.2611 28.7091 29.3479 28.9128 29.4474C29.1165 29.5468 29.2522 29.6258 29.3201 29.6921C29.3817 29.7505 29.4259 29.8058 29.4496 29.8532ZM18.2312 35.5547C18.2312 40.7953 21.7712 45.0442 26.1386 45.0442H8.58225C8.67067 44.7947 8.74172 44.5342 8.74172 44.2547C8.74172 42.9442 7.67909 41.8816 6.37014 41.8816C6.08909 41.8816 5.82856 41.9526 5.57909 42.0411V29.07C5.82856 29.16 6.08909 29.2295 6.37014 29.2295C7.68067 29.2295 8.74172 28.1684 8.74172 26.8579C8.74172 26.5768 8.67067 26.3163 8.58225 26.0668H26.1386C21.7712 26.0653 18.2312 30.3142 18.2312 35.5547ZM11.9044 32.2611C10.5938 32.2611 9.53277 33.6758 9.53277 35.4237C9.53277 37.1716 10.5954 38.5863 11.9044 38.5863C13.2149 38.5863 14.2759 37.1716 14.2759 35.4237C14.2759 33.6758 13.2149 32.2611 11.9044 32.2611Z" fill="black"/>
</g>
<defs>
<clipPath id="clip0_242_60">
<rect width="60" height="60" fill="white" transform="translate(0.834351 0.809998)"/>
</clipPath>
</defs>
</svg>
