<svg width="41" height="41" viewBox="0 0 41 41" fill="none" xmlns="http://www.w3.org/2000/svg">
<path d="M23.3688 14.1096H7.81326C7.51857 14.1096 7.23596 13.9925 7.02759 13.7842C6.81921 13.5758 6.70215 13.2932 6.70215 12.9985V8.55404C6.70215 8.25936 6.81921 7.97674 7.02759 7.76837C7.23596 7.56 7.51857 7.44293 7.81326 7.44293H23.3688C23.6635 7.44293 23.9461 7.56 24.1545 7.76837C24.3629 7.97674 24.4799 8.25936 24.4799 8.55404V12.9985C24.4799 13.2932 24.3629 13.5758 24.1545 13.7842C23.9461 13.9925 23.6635 14.1096 23.3688 14.1096ZM8.92437 11.8874H22.2577V9.59849H8.92437V11.8874Z" fill="black"/>
<path d="M23.3688 16.4207H7.81326C7.51857 16.4207 7.23596 16.5378 7.02759 16.7462C6.81921 16.9545 6.70215 17.2371 6.70215 17.5318V21.8874C6.70215 22.1821 6.81921 22.4647 7.02759 22.6731C7.23596 22.8814 7.51857 22.9985 7.81326 22.9985H20.4355L24.4799 18.8874V17.5318C24.4799 17.2371 24.3629 16.9545 24.1545 16.7462C23.9461 16.5378 23.6635 16.4207 23.3688 16.4207ZM22.2577 20.7763H8.92437V18.554H22.2577V20.7763Z" fill="black"/>
<path d="M12.3242 35.7874V35.7207L12.6798 34.1762H4.47979V5.2207H26.702V16.6096L28.9242 14.5096V4.10959C28.9242 3.8149 28.8072 3.53228 28.5988 3.32391C28.3904 3.11554 28.1078 2.99847 27.8131 2.99847H3.36868C3.07399 2.99847 2.79138 3.11554 2.58301 3.32391C2.37463 3.53228 2.25757 3.8149 2.25757 4.10959V35.2207C2.25757 35.5154 2.37463 35.798 2.58301 36.0064C2.79138 36.2147 3.07399 36.3318 3.36868 36.3318H12.2576C12.2667 36.149 12.289 35.967 12.3242 35.7874Z" fill="black"/>
<path d="M24.4799 22.0762L23.6133 22.954C23.8283 22.9097 24.0254 22.8027 24.1796 22.6464C24.3339 22.4902 24.4384 22.2918 24.4799 22.0762Z" fill="black"/>
<path d="M6.70215 30.7096C6.70215 31.0043 6.81921 31.2869 7.02759 31.4953C7.23596 31.7036 7.51857 31.8207 7.81326 31.8207H13.191L13.5244 30.3763L13.6688 29.7651V29.7096H8.92437V27.4429H15.9688L18.191 25.2207H7.81326C7.51857 25.2207 7.23596 25.3378 7.02759 25.5461C6.81921 25.7545 6.70215 26.0371 6.70215 26.3318V30.7096Z" fill="black"/>
<path d="M37.2466 19.2985L33.5021 15.554C33.3359 15.3874 33.1385 15.2552 32.9212 15.165C32.7038 15.0748 32.4708 15.0283 32.2355 15.0283C32.0001 15.0283 31.7671 15.0748 31.5498 15.165C31.3324 15.2552 31.135 15.3874 30.9688 15.554L15.7355 30.8762L14.4799 36.2207C14.4329 36.4512 14.4318 36.6888 14.4768 36.9198C14.5217 37.1508 14.6118 37.3706 14.7419 37.5667C14.8719 37.7628 15.0394 37.9313 15.2347 38.0626C15.43 38.1939 15.6492 38.2854 15.8799 38.3318C15.9944 38.3433 16.1098 38.3433 16.2243 38.3318C16.3605 38.354 16.4993 38.354 16.6355 38.3318L22.0244 37.1429L37.2466 21.8873C37.4129 21.7221 37.5448 21.5256 37.6349 21.3092C37.725 21.0928 37.7713 20.8607 37.7713 20.6262C37.7713 20.3918 37.725 20.1597 37.6349 19.9433C37.5448 19.7268 37.4129 19.5303 37.2466 19.3651V19.2985ZM20.891 35.1207L16.8243 36.0207L17.8132 31.9873L29.2355 20.4429L32.3688 23.5762L20.891 35.1207ZM33.6243 22.3207L30.491 19.1873L32.2577 17.4429L35.4132 20.5985L33.6243 22.3207Z" fill="black"/>
</svg>
