<svg width="61" height="47" viewBox="0 0 61 47" fill="none" xmlns="http://www.w3.org/2000/svg">
<path d="M0.834351 26.1074C0.834351 26.9418 1.35496 27.6876 2.13818 27.975L5.70654 29.285C5.97496 28.6439 6.36862 28.043 6.8898 27.5218C7.93102 26.4806 9.31545 25.9071 10.788 25.9071C12.2606 25.9071 13.645 26.4806 14.6863 27.5218L25.6072 38.4427C27.1438 39.9793 27.5813 42.2046 26.9209 44.1342C28.5087 45.297 30.6387 45.4974 32.4371 44.5932L47.4566 37.0418C49.9105 35.8082 50.925 32.9965 50.0942 30.5785C50.0874 30.5785 50.0804 30.5788 50.0737 30.5788C48.0744 30.5788 46.1907 29.7002 44.9057 28.1682L34.5663 15.841L33.1063 17.301C32.0827 18.3244 30.722 18.8882 29.2745 18.8882C27.827 18.8882 26.4662 18.3246 25.4427 17.301L24.9447 16.803C23.9212 15.7795 23.3576 14.4187 23.3576 12.9712C23.3576 11.5237 23.9213 10.1629 24.9447 9.13938L29.0904 4.9937L28.225 3.96208C26.643 2.05749 23.9539 1.50037 21.7454 2.61978L10.4721 8.33368L3.56656 5.55549C2.25919 5.02951 0.834477 5.99197 0.834477 7.40121V26.1074H0.834351Z" fill="black"/>
<path d="M60.8344 25.2972V9.98586C60.8344 8.8871 59.9436 7.99639 58.8449 7.99639H50.0344L40.9718 1.45494C40.0389 0.781547 38.951 0.451294 37.8684 0.451294C36.5013 0.451294 35.1426 0.977967 34.1153 2.00523L30.0193 6.10121L25.9628 10.1577C24.4089 11.7115 24.4089 14.2309 25.9628 15.7848L26.4608 16.2828C27.2377 17.0597 28.256 17.4482 29.2743 17.4482C30.2927 17.4482 31.311 17.0597 32.0879 16.2828L34.6594 13.7113L46.0088 27.2427C46.855 28.2517 48.0282 28.8909 49.2877 29.0798C49.5469 29.1186 49.8094 29.1389 50.0735 29.1389C50.4526 29.1389 50.8352 29.0981 51.2144 29.0145L59.2726 27.2402C60.1847 27.0394 60.8344 26.2313 60.8344 25.2972Z" fill="black"/>
<path d="M18.8289 45.221C19.6242 46.0163 20.6665 46.4139 21.7089 46.4139C22.7513 46.4139 23.7937 46.0163 24.589 45.221C25.2095 44.6005 25.5868 43.8292 25.7231 43.0251C25.9362 41.7684 25.5589 40.431 24.589 39.4609L13.668 28.54C12.8727 27.7447 11.8304 27.3471 10.788 27.3471C9.74565 27.3471 8.7033 27.7447 7.90801 28.54C7.53917 28.909 7.25698 29.3313 7.05923 29.7817C6.40416 31.274 6.68635 33.0783 7.90801 34.3L18.8289 45.221Z" fill="black"/>
</svg>
